HIERARCHY
ROOT hip
{
  OFFSET 0 0 0
  CHANNELS 6 Xposition Yposition Zposition Zrotation Yrotation Xrotation
  JOINT abdomen
  {
    OFFSET 0 20.6881 -0.73152
    CHANNELS 3 Zrotation Xrotation Yrotation
    JOINT chest
    {
      OFFSET 0 11.7043 -0.48768
      CHANNELS 3 Zrotation Xrotation Yrotation
      JOINT neck
      {
        OFFSET 0 22.1894 -2.19456
        CHANNELS 3 Zrotation Xrotation Yrotation
        JOINT head
        {
          OFFSET -0.24384 7.07133 1.2192
          CHANNELS 3 Zrotation Xrotation Yrotation
          JOINT leftEye
          {
            OFFSET 4.14528 8.04674 8.04672
            CHANNELS 3 Zrotation Xrotation Yrotation
            End Site
            {
              OFFSET 1 0 0
            }
          }
          JOINT rightEye
          {
            OFFSET -3.6576 8.04674 8.04672
            CHANNELS 3 Zrotation Xrotation Yrotation
            End Site
            {
              OFFSET 1 0 0
            }
          }
        }
      }
      JOINT rCollar
      {
        OFFSET -2.68224 19.2634 -4.8768
        CHANNELS 3 Zrotation Xrotation Yrotation
        JOINT rShldr
        {
          OFFSET -8.77824 -1.95073 1.46304
          CHANNELS 3 Zrotation Xrotation Yrotation
          JOINT rForeArm
          {
            OFFSET -28.1742 -1.7115 0.48768
            CHANNELS 3 Zrotation Xrotation Yrotation
            JOINT rHand
            {
              OFFSET -22.5879 0.773209 7.07136
              CHANNELS 3 Zrotation Xrotation Yrotation
              JOINT rThumb1
              {
                OFFSET -1.2192 -0.487915 3.41376
                CHANNELS 3 Zrotation Xrotation Yrotation
                JOINT rThumb2
                {
                  OFFSET -3.37035 -0.52449 3.41376
                  CHANNELS 3 Zrotation Xrotation Yrotation
                  End Site
                  {
                    OFFSET -1.78271 -1.18214 1.43049
                  }
                }
              }
              JOINT rIndex1
              {
                OFFSET -7.75947 0.938293 5.60832
                CHANNELS 3 Zrotation Xrotation Yrotation
                JOINT rIndex2
                {
                  OFFSET -2.54057 -0.884171 1.56538
                  CHANNELS 3 Zrotation Xrotation Yrotation
                  End Site
                  {
                    OFFSET -1.62519 -0.234802 1.16502
                  }
                }
              }
              JOINT rMid1
              {
                OFFSET -8.24714 1.18213 3.41376
                CHANNELS 3 Zrotation Xrotation Yrotation
                JOINT rMid2
                {
                  OFFSET -3.10165 -0.590103 1.0647
                  CHANNELS 3 Zrotation Xrotation Yrotation
                  End Site
                  {
                    OFFSET -2.48547 -0.328903 0.83742
                  }
                }
              }
              JOINT rRing1
              {
                OFFSET -8.82822 0.546677 1.51678
                CHANNELS 3 Zrotation Xrotation Yrotation
                JOINT rRing2
                {
                  OFFSET -2.60934 -0.819778 -0.0198488
                  CHANNELS 3 Zrotation Xrotation Yrotation
                  End Site
                  {
                    OFFSET -2.33842 -0.294052 0.168128
                  }
                }
              }
              JOINT rPinky1
              {
                OFFSET -8.27202 -0.0477905 -0.4584
                CHANNELS 3 Zrotation Xrotation Yrotation
                JOINT rPinky2
                {
                  OFFSET -1.82734 -0.647385 -0.700984
                  CHANNELS 3 Zrotation Xrotation Yrotation
                  End Site
                  {
                    OFFSET -1.69225 -0.51767 -0.607171
                  }
                }
              }
            }
          }
        }
      }
      JOINT lCollar
      {
        OFFSET 2.68224 19.2634 -4.8768
        CHANNELS 3 Zrotation Xrotation Yrotation
        JOINT lShldr
        {
          OFFSET 8.77824 -1.95073 1.46304
          CHANNELS 3 Zrotation Xrotation Yrotation
          JOINT lForeArm
          {
            OFFSET 28.1742 -1.7115 0.48768
            CHANNELS 3 Zrotation Xrotation Yrotation
            JOINT lHand
            {
              OFFSET 22.5879 0.773209 7.07136
              CHANNELS 3 Zrotation Xrotation Yrotation
              JOINT lThumb1
              {
                OFFSET 1.2192 -0.487915 3.41376
                CHANNELS 3 Zrotation Xrotation Yrotation
                JOINT lThumb2
                {
                  OFFSET 3.37035 -0.52449 3.41376
                  CHANNELS 3 Zrotation Xrotation Yrotation
                  End Site
                  {
                    OFFSET 1.78271 -1.18214 1.43049
                  }
                }
              }
              JOINT lIndex1
              {
                OFFSET 7.75947 0.938293 5.60832
                CHANNELS 3 Zrotation Xrotation Yrotation
                JOINT lIndex2
                {
                  OFFSET 2.54057 -0.884171 1.56538
                  CHANNELS 3 Zrotation Xrotation Yrotation
                  End Site
                  {
                    OFFSET 1.62519 -0.234802 1.16502
                  }
                }
              }
              JOINT lMid1
              {
                OFFSET 8.24714 1.18213 3.41376
                CHANNELS 3 Zrotation Xrotation Yrotation
                JOINT lMid2
                {
                  OFFSET 3.10165 -0.590103 1.0647
                  CHANNELS 3 Zrotation Xrotation Yrotation
                  End Site
                  {
                    OFFSET 2.48547 -0.328903 0.83742
                  }
                }
              }
              JOINT lRing1
              {
                OFFSET 8.82822 0.546677 1.51678
                CHANNELS 3 Zrotation Xrotation Yrotation
                JOINT lRing2
                {
                  OFFSET 2.60934 -0.819778 -0.0198488
                  CHANNELS 3 Zrotation Xrotation Yrotation
                  End Site
                  {
                    OFFSET 2.33842 -0.294052 0.168128
                  }
                }
              }
              JOINT lPinky1
              {
                OFFSET 8.27202 -0.0477905 -0.4584
                CHANNELS 3 Zrotation Xrotation Yrotation
                JOINT lPinky2
                {
                  OFFSET 1.82734 -0.647385 -0.700984
                  CHANNELS 3 Zrotation Xrotation Yrotation
                  End Site
                  {
                    OFFSET 1.69225 -0.51767 -0.607171
                  }
                }
              }
            }
          }
        }
      }
    }
  }
  JOINT rButtock
  {
    OFFSET -8.77824 4.35084 1.2192
    CHANNELS 3 Zrotation Xrotation Yrotation
    JOINT rThigh
    {
      OFFSET 0 -1.70687 -2.19456
      CHANNELS 3 Zrotation Xrotation Yrotation
      JOINT rShin
      {
        OFFSET 0 -36.8199 0.73152
        CHANNELS 3 Zrotation Xrotation Yrotation
        JOINT rFoot
        {
          OFFSET 0.73152 -45.1104 -5.12064
          CHANNELS 3 Zrotation Xrotation Yrotation
          End Site
          {
            OFFSET -1.1221 -3.69964 12.103
          }
        }
      }
    }
  }
  JOINT lButtock
  {
    OFFSET 8.77824 4.35084 1.2192
    CHANNELS 3 Zrotation Xrotation Yrotation
    JOINT lThigh
    {
      OFFSET 0 -1.70687 -2.19456
      CHANNELS 3 Zrotation Xrotation Yrotation
      JOINT lShin
      {
        OFFSET 0 -36.8199 0.73152
        CHANNELS 3 Zrotation Xrotation Yrotation
        JOINT lFoot
        {
          OFFSET -0.73152 -45.1104 -5.12064
          CHANNELS 3 Zrotation Xrotation Yrotation
          End Site
          {
            OFFSET 1.1221 -3.69964 12.103
          }
        }
      }
    }
  }
}
MOTION
Frames:	5
Frame Time:	0.03333
0.0 0.0 0.0 0.0 0.0 0.0 0.0 0.0 0.0 0.0 0.0 0.0 0.0 0.0 0.0 0.0 0.0 0.0 0.0 0.0 0.0 0.0 0.0 0.0 0.0 0.0 0.0 0.0 0.0 0.0 0.0 0.0 0.0 0.0 0.0 0.0 0.0 0.0 0.0 0.0 0.0 0.0 0.0 0.0 0.0 0.0 0.0 0.0 0.0 0.0 0.0 0.0 0.0 0.0 0.0 0.0 0.0 0.0 0.0 0.0 0.0 0.0 0.0 0.0 0.0 0.0 0.0 0.0 0.0 0.0 0.0 0.0 0.0 0.0 0.0 0.0 0.0 0.0 0.0 0.0 0.0 0.0 0.0 0.0 0.0 0.0 0.0 0.0 0.0 0.0 0.0 0.0 0.0 0.0 0.0 0.0 0.0 0.0 0.0 0.0 0.0 0.0 0.0 0.0 0.0 0.0 0.0 0.0 0.0 0.0 0.0 0.0 0.0 0.0 0.0 0.0 0.0 0.0 0.0 0.0 0.0 0.0 0.0 0.0 0.0 0.0 0.0 0.0 0.0 0.0 0.0 0.0
0.0106 54.86 -0.0161 2.364983 -66.270695 -0.855205 -7.992961 7.931806 -0.0 4.651746 -10.328176 -3.999592 -16.139863 28.583716 -73.727147 37.405103 5.743804 26.148696 -0.001247 -0.0 3.6e-05 -0.001247 -0.0 3.6e-05 3.269041 -26.755853 -5.241156 79.816242 -87.165561 15.763225 -163.862575 -74.463557 69.614468 151.37368 -42.203375 135.650586 -171.705998 -9.388418 89.949127 -9.70968 -48.271184 5.093168 -46.208017 39.653027 36.318422 -171.645957 -21.981952 111.593584 23.903121 -61.333963 1.398145 -151.89949 24.943871 137.042281 -145.117894 0.226743 -179.19934 11.418258 17.715837 -6.941059 -143.935495 8.265482 -140.720242 -146.884493 9.991124 -141.291086 -4.26017 -46.008905 8.910299 105.232129 -14.508839 137.759557 64.491182 54.861917 82.696643 153.626042 8.085391 -144.367694 78.030188 38.690536 -42.412683 5.308181 -11.362666 -26.815557 -129.219103 -75.529955 -76.343978 6.187458 32.659744 -4.48482 171.80567 -40.922025 -145.169598 105.18741 61.436862 -95.954249 -0.004653 1.770326 -0.557003 -0.072347 52.588508 -12.152009 152.200259 37.329715 147.583709 -1.899077 0.144831 1.838768 -179.988364 75.752048 -0.007962 141.778384 7.555767 -0.0 29.227234 69.817845 65.87191 -116.268511 -63.802823 140.964366 -179.998544 75.750394 -0.0 -144.264686 42.472768 -25.36896 -75.143913 76.240011 159.771121 30.735115 -72.420961 -39.232221
0.007899999999999999 54.860200000000006 -0.0312 2.383495 -66.245243 -0.878369 -7.995501 7.950921 -0.0 4.657107 -10.300728 -3.977624 -16.144219 28.742426 -74.845188 37.525955 6.339192 27.144951 0.0037 0.0 0.001461 -0.001974 -0.0 0.00218 -155.679161 -4.672056 162.083374 146.902778 15.760062 -167.788038 -73.859666 -21.841722 49.029061 12.843889 -21.626136 8.187569 83.253754 -50.257273 33.616755 -91.864179 38.728076 54.601282 -145.573057 -6.674176 118.789985 107.285444 -70.914578 54.088389 -36.91291 52.19029 30.650499 -158.820305 7.676172 141.484878 0.006799 1.77308 0.558216 -156.322354 -15.212789 173.653844 5.069942 14.897026 4.57008 2.226579 0.096506 0.003176 -3.738 -33.150889 6.412768 -70.760483 15.706939 31.682846 -22.15069 58.085925 -92.115073 18.842996 -43.531922 10.855211 157.999979 4.195208 -88.451099 94.347586 5.035221 -40.442528 -88.792579 -75.498377 -40.049172 47.008364 52.492054 -38.095235 151.475885 17.841864 -137.539579 42.403196 58.299254 -36.591012 -0.004884 0.918009 -0.286837 -9.001938 14.183677 -1.886973 148.071387 21.785055 144.326227 162.56809 55.828768 146.696567 179.992644 75.749957 0.005033 141.756729 7.552626 -0.0 -10.389829 75.620703 -100.032991 -167.682259 74.94383 -114.622759 -179.981349 75.748821 -0.012761 -144.868541 40.282243 -180.0 -72.097154 -78.145067 170.832655 142.637629 -31.661766 35.04032
0.008 54.8594 -0.0424 2.263528 -66.248295 -0.783834 -5.979523 4.222759 -125.107246 3.857249 5.88445 120.373994 -4.755539 18.948466 11.330177 -0.892985 -25.507915 -59.695582 -0.00114 0.0 -0.000178 -0.00114 0.0 -0.000178 -44.040033 64.187342 46.709669 -100.176786 27.5519 93.582252 -111.326341 35.140103 -139.103961 5.735927 -2.086834 4.252954 -94.791349 37.828628 54.284038 -46.174842 -4.145749 42.337913 -46.209762 39.652102 36.318534 -170.218575 -19.905812 111.814457 -0.970014 2.779336 0.554774 -179.648185 -48.713777 141.479106 0.00019 -0.061004 -0.018096 -149.978224 38.867332 164.836685 -80.937998 -51.228051 -79.360172 -140.054087 -5.804752 -137.642084 9.651891 34.836021 -11.199992 -121.936133 -52.76809 -51.009455 -129.497261 2.185259 23.052696 35.666308 18.60409 -17.196827 164.6978 -2.372346 -89.584685 -18.00228 -57.823838 -20.083954 95.099226 39.749723 -80.124313 3.717023 15.780377 1.998116 36.035121 51.723661 -29.831407 169.971847 -25.747303 -144.205635 145.12307 1.974951 179.747807 -10.066592 -0.022633 8.996935 86.173746 -50.469485 84.539492 -68.045451 84.81252 28.908328 -179.989672 75.749445 -0.007066 141.661724 7.572169 5.061855 39.439123 66.707073 52.208371 -16.594648 -57.828828 -113.009593 179.647988 75.749837 0.271313 -143.949428 42.346697 -25.569734 -68.573667 75.48992 137.457243 -76.593083 19.015045 -31.076953
0.0082 54.8509 -0.051199999999999996 2.222091 -66.256036 -0.74264 -5.530682 6.077671 -78.897151 8.605502 0.529045 74.40145 6.656048 29.584139 102.587873 -33.885807 14.493039 -148.254308 -0.001691 -0.0 0.000319 -0.001691 -0.0 0.000319 -0.088102 0.524885 0.117433 45.354066 25.093406 29.879276 -117.362641 26.402627 13.714166 74.7482 -65.286563 63.736104 9.390684 -9.380836 -0.682471 -88.93322 26.285647 78.903661 0.185737 -0.300151 -0.103913 -152.024235 -0.048508 109.301705 -160.673863 -6.667482 143.246096 2.653935 1.632841 0.583198 -145.099752 -1.521912 -178.649602 -155.367459 0.835123 -179.331085 -150.575311 31.033888 -146.364864 -147.657915 10.967096 -141.57945 -2.530235 -18.881231 3.793519 -69.03608 3.572231 19.261181 -164.901529 -41.638869 -23.833303 115.623921 45.010871 -102.348308 78.031348 38.689416 -42.412058 31.491421 -2.361301 -38.157668 117.899433 27.950328 -99.679733 173.00542 -27.661515 -116.118426 174.671614 -47.953804 -144.480182 -9.82799 -20.358065 1.195132 0.00027 -0.018438 0.006146 154.830345 6.438438 -171.002787 29.626796 -40.969718 28.61658 145.548436 8.419182 142.527662 0.007527 -0.000973 0.007527 -62.399859 -47.223468 -110.937698 -69.980924 33.782996 -6.918997 148.608838 -14.164881 -87.288716 -179.98618 75.749502 -0.011371 -144.68173 40.171917 180.0 -87.000284 -78.33097 -177.871808 -74.888705 38.702924 -38.124263
